<?xml version="1.0" standalone="no"?>
<!DOCTYPE svg PUBLIC "-//W3C//DTD SVG 20010904//EN"
 "http://www.w3.org/TR/2001/REC-SVG-20010904/DTD/svg10.dtd">
<svg version="1.0" xmlns="http://www.w3.org/2000/svg"
 width="1024.000000pt" height="1024.000000pt" viewBox="0 0 1024.000000 1024.000000"
 preserveAspectRatio="xMidYMid meet">

<g transform="translate(0.000000,1024.000000) scale(0.100000,-0.100000)"
fill="#000000" stroke="none">
<path d="M2657 7303 c-7 -35 -6 -4805 1 -4855 l5 -38 478 0 479 0 0 1010 c0
556 3 1010 8 1009 8 0 188 -252 446 -624 46 -66 188 -272 317 -457 129 -186
266 -384 304 -440 39 -56 132 -191 208 -300 l138 -198 47 0 c518 -4 1132 -4
1132 -1 0 6 -104 156 -271 391 -165 231 -350 494 -475 673 -39 56 -120 172
-179 257 -367 525 -557 808 -553 822 2 5 50 25 107 43 373 121 671 384 839
741 104 222 148 474 124 712 -26 255 -110 467 -275 687 -213 286 -501 470
-877 561 l-115 28 -942 3 -941 4 -5 -28z m1726 -878 c224 -47 401 -224 437
-437 23 -135 -2 -286 -64 -393 -68 -115 -212 -228 -338 -266 -104 -30 -212
-39 -520 -39 l-278 0 0 575 0 575 348 0 c264 0 363 -4 415 -15z"/>
<path d="M6817 7323 c-4 -3 -7 -715 -7 -1580 l0 -1575 -23 29 c-13 15 -164
218 -336 451 -172 232 -315 422 -317 422 -5 0 -46 -36 -309 -265 -357 -311
-443 -390 -434 -406 4 -9 245 -333 535 -720 290 -387 622 -831 738 -986 l211
-282 163 -2 c193 -2 134 -2 467 0 l275 1 -2 2458 -3 2457 -476 3 c-261 1 -479
-1 -482 -5z"/>
</g>
</svg>
